<?xml version="1.0" encoding="utf-8"?>
<!-- Generator: Adobe Illustrator 23.0.5, SVG Export Plug-In . SVG Version: 6.00 Build 0)  -->
<svg version="1.1" id="Layer_1" xmlns="http://www.w3.org/2000/svg" xmlns:xlink="http://www.w3.org/1999/xlink" x="0px" y="0px"
	 viewBox="0 0 30 27.5" style="enable-background:new 0 0 30 27.5;" xml:space="preserve">
<style type="text/css">
	.st0{fill:#3A3E3D;}
</style>
<g>
	<g>
		<path class="st0" d="M26,4c-2.6-2.6-6.1-4-9.7-4C12.5,0,9,1.5,6.4,4.2c-0.3,0.3-0.3,0.8,0,1c0.3,0.3,0.8,0.3,1,0
			c2.3-2.4,5.5-3.7,8.8-3.7C23,1.5,28.5,7,28.5,13.8S23,26,16.2,26S4,20.5,4,13.8v-0.2l1.2,1.2C5.3,15,5.5,15,5.7,15
			s0.4-0.1,0.5-0.2c0.3-0.3,0.3-0.8,0-1l-2.5-2.5c-0.3-0.3-0.8-0.3-1,0l-2.5,2.5c-0.3,0.3-0.3,0.8,0,1s0.8,0.3,1,0l1.2-1.2v0.2
			c0,3.7,1.4,7.1,4,9.7s6.1,4,9.7,4s7.1-1.4,9.7-4s4-6.1,4-9.7S28.6,6.6,26,4z"/>
		<path class="st0" d="M20.2,8.8l-9.1,9.1c-0.3,0.3-0.3,0.8,0,1c0.1,0.1,0.3,0.2,0.5,0.2c0.2,0,0.4-0.1,0.5-0.2l9.1-9.1
			c0.3-0.3,0.3-0.8,0-1C20.9,8.5,20.5,8.5,20.2,8.8z"/>
		<path class="st0" d="M17.8,14.9c-1,1-1,2.7,0,3.7c0.5,0.5,1.2,0.8,1.9,0.8c0.7,0,1.4-0.3,1.9-0.8c1-1,1-2.7,0-3.7
			c-0.5-0.5-1.2-0.8-1.9-0.8C19,14.1,18.3,14.4,17.8,14.9z M20.5,17.6c-0.2,0.2-0.5,0.3-0.8,0.3c-0.3,0-0.6-0.1-0.8-0.3
			c-0.5-0.5-0.5-1.2,0-1.7c0.2-0.2,0.5-0.3,0.8-0.3c0.3,0,0.6,0.1,0.8,0.3C21,16.4,21,17.1,20.5,17.6z"/>
		<path class="st0" d="M12.8,8.1c-0.7,0-1.4,0.3-1.9,0.8c-0.5,0.5-0.8,1.2-0.8,1.9c0,0.7,0.3,1.4,0.8,1.9s1.2,0.8,1.9,0.8
			c0.7,0,1.4-0.3,1.9-0.8s0.8-1.2,0.8-1.9c0-0.7-0.3-1.4-0.8-1.9C14.2,8.4,13.5,8.1,12.8,8.1z M13.7,11.6c-0.2,0.2-0.5,0.3-0.8,0.3
			c-0.3,0-0.6-0.1-0.8-0.3c-0.2-0.2-0.3-0.5-0.3-0.8c0-0.3,0.1-0.6,0.3-0.8c0.2-0.2,0.5-0.3,0.8-0.3c0.3,0,0.6,0.1,0.8,0.3
			c0.2,0.2,0.3,0.5,0.3,0.8C14,11.1,13.9,11.4,13.7,11.6z"/>
	</g>
</g>
</svg>
