<?xml version="1.0" encoding="utf-8"?>
<!-- Generator: Adobe Illustrator 23.0.5, SVG Export Plug-In . SVG Version: 6.00 Build 0)  -->
<svg version="1.1" id="Capa_1" xmlns="http://www.w3.org/2000/svg" xmlns:xlink="http://www.w3.org/1999/xlink" x="0px" y="0px"
	 viewBox="0 0 30 19.6" style="enable-background:new 0 0 30 19.6;" xml:space="preserve">
<style type="text/css">
	.st0{fill:#3A3E3D;}
</style>
<path class="st0" d="M30,15c-0.1-0.6-1.2-5.8-1.4-6.6c-0.6-1.8-2.1-3.9-3.9-5.6C22.7,1,20.7,0,19.1,0H4C3.2,0,2.6,0.6,2.6,1.4v2.2
	h-1C1.1,3.7,0.8,4,0.8,4.4c0,0.4,0.3,0.7,0.7,0.7h1v1.7H0.7C0.3,6.7,0,7,0,7.4s0.3,0.7,0.7,0.7h1.9v7c0,0.8,0.6,1.4,1.4,1.4h1.7
	c0.3,1.7,1.8,3.1,3.5,3.1s3.3-1.3,3.5-3.1h6.4c0.3,1.7,1.8,3.1,3.5,3.1s3.3-1.3,3.5-3.1h2.3c0.8,0,1.4-0.6,1.4-1.4
	C30,15.1,30,15,30,15z M27.2,8.6H20v-7C22.5,2.2,26.1,5.6,27.2,8.6z M9.3,18.2c-1.2,0-2.2-1-2.2-2.2s1-2.2,2.2-2.2s2.2,1,2.2,2.2
	C11.5,17.2,10.5,18.2,9.3,18.2z M22.8,18.2c-1.2,0-2.2-1-2.2-2.2s1-2.2,2.2-2.2c1.2,0,2.2,1,2.2,2.2C25,17.2,24,18.2,22.8,18.2z
	 M28.5,15.1c-0.6,0-2.3,0-2.3,0c-0.4-1.6-1.8-2.7-3.5-2.7c-1.7,0-3.1,1.2-3.5,2.7h-6.5c-0.4-1.6-1.8-2.7-3.5-2.7s-3.1,1.2-3.5,2.7H4
	c0,0,0,0,0,0v-7h8.5c0.4,0,0.7-0.3,0.7-0.7s-0.3-0.7-0.7-0.7H4V5.1h3.9c0.4,0,0.7-0.3,0.7-0.7S8.3,3.7,7.9,3.7H4V1.4c0,0,0,0,0,0
	h14.6v7.9c0,0.4,0.3,0.7,0.7,0.7h8.2C27.8,11.3,28.2,13.5,28.5,15.1C28.6,15.1,28.6,15.1,28.5,15.1z"/>
</svg>
