<?xml version="1.0" encoding="utf-8"?>
<!-- Generator: Adobe Illustrator 23.0.5, SVG Export Plug-In . SVG Version: 6.00 Build 0)  -->
<svg version="1.1" id="Capa_1" xmlns="http://www.w3.org/2000/svg" xmlns:xlink="http://www.w3.org/1999/xlink" x="0px" y="0px"
	 viewBox="0 0 30 28" style="enable-background:new 0 0 30 28;" xml:space="preserve">
<style type="text/css">
	.st0{fill:#3A3E3D;}
</style>
<g>
	<path class="st0" d="M29.9,13.2c-0.2-0.3-0.5-0.5-0.8-0.5h-1.8C27.2,5.7,21.5,0,14.5,0c-0.9,0-1.6,0.7-1.6,1.6s0.7,1.6,1.6,1.6
		c5.3,0,9.6,4.3,9.7,9.6h-1.8c-0.4,0-0.7,0.2-0.8,0.5c-0.2,0.3-0.1,0.7,0.1,1l3.3,4.3c0.2,0.2,0.5,0.4,0.7,0.4
		c0.3,0,0.6-0.1,0.7-0.4l3.3-4.3C30,13.9,30.1,13.5,29.9,13.2z"/>
	<path class="st0" d="M14.5,23c-0.9,0-1.6,0.7-1.6,1.6v1.9c0,0.9,0.7,1.6,1.6,1.6c0.9,0,1.6-0.7,1.6-1.6v-1.9
		C16,23.6,15.3,23,14.5,23z"/>
	<path class="st0" d="M7.6,4.8c0.4,0.7,1.4,1,2.1,0.6c0.7-0.4,1-1.4,0.6-2.1l-1-1.7C8.9,0.8,8,0.5,7.2,1s-1,1.4-0.6,2.1L7.6,4.8z"/>
	<path class="st0" d="M21.3,22.3c-0.4-0.7-1.4-1-2.1-0.6c-0.7,0.4-1,1.4-0.6,2.1l1,1.7c0.4,0.7,1.4,1,2.1,0.6c0.7-0.4,1-1.4,0.6-2.1
		L21.3,22.3z"/>
	<path class="st0" d="M2.5,8.4l1.7,1c0.7,0.4,1.7,0.2,2.1-0.6C6.7,8,6.5,7.1,5.7,6.7l-1.7-1C3.3,5.3,2.4,5.5,1.9,6.3S1.8,8,2.5,8.4z
		"/>
	<path class="st0" d="M5,13.5C5,12.7,4.3,12,3.5,12H1.6C0.7,12,0,12.7,0,13.5c0,0.9,0.7,1.6,1.6,1.6h1.9C4.3,15.1,5,14.4,5,13.5z"/>
	<path class="st0" d="M6.3,18.2c-0.4-0.7-1.4-1-2.1-0.6l-1.7,1c-0.7,0.4-1,1.4-0.6,2.1c0.4,0.7,1.4,1,2.1,0.6l1.7-1
		C6.5,19.9,6.7,19,6.3,18.2z"/>
	<path class="st0" d="M9.8,21.7c-0.7-0.4-1.7-0.2-2.1,0.6l-1,1.7c-0.4,0.7-0.2,1.7,0.6,2.1c0.7,0.4,1.7,0.2,2.1-0.6l1-1.7
		C10.8,23.1,10.5,22.1,9.8,21.7z"/>
	<path class="st0" d="M13.6,16.6c0-0.5-0.4-0.9-0.9-0.9h-1.8c0,0,0,0,0-0.1c0.1-0.1,0.4-0.4,0.8-0.8c0.5-0.4,0.8-0.7,1-1
		c0.3-0.3,0.5-0.7,0.6-1c0.1-0.3,0.2-0.7,0.2-1c0-0.6-0.2-1.2-0.7-1.6c-0.5-0.4-1.1-0.7-1.9-0.7c-0.7,0-1.3,0.2-1.8,0.6
		c-0.3,0.2-0.5,0.5-0.7,0.9c-0.1,0.3-0.1,0.6,0.1,0.8c0.1,0.2,0.4,0.4,0.7,0.4c0,0,0.1,0,0.1,0c0.4,0,0.7-0.2,0.9-0.6
		c0-0.1,0.1-0.2,0.2-0.3c0.1-0.1,0.3-0.2,0.6-0.2c0.2,0,0.4,0.1,0.6,0.2c0.1,0.1,0.2,0.3,0.2,0.6c0,0.2-0.1,0.5-0.3,0.8
		c-0.1,0.1-0.4,0.5-1.1,1.2c-0.8,0.8-1.4,1.4-1.6,1.8c-0.2,0.3-0.3,0.7-0.4,1c0,0.2,0,0.3,0.1,0.5c0.1,0.1,0.3,0.2,0.4,0.2h3.9
		C13.2,17.5,13.6,17.1,13.6,16.6z"/>
	<path class="st0" d="M18.7,16.6V16h0.1c0.5,0,0.8-0.4,0.8-0.8c0-0.5-0.4-0.8-0.8-0.8h-0.1v-4.2c0-0.3-0.2-0.6-0.6-0.6h-0.7
		c-0.2,0-0.4,0.1-0.5,0.2l-3,4.4c-0.1,0.1-0.1,0.3-0.1,0.4v0.7c0,0.3,0.2,0.6,0.6,0.6h2.5v0.6c0,0.5,0.4,0.9,0.9,0.9
		C18.3,17.5,18.7,17.1,18.7,16.6z M16.9,14.3h-1.1l1.1-1.7V14.3z"/>
</g>
</svg>
